<svg width="801" height="438" viewBox="0 0 801 438" fill="none" xmlns="http://www.w3.org/2000/svg">
<rect x="140" y="19" width="80" height="400" rx="10" fill="#222831"/>
<rect x="293" y="19" width="80" height="400" rx="10" fill="#393E46"/>
<rect x="548" y="19" width="80" height="255" rx="10" transform="rotate(90 548 19)" fill="#393E46"/>
<rect x="520" y="159" width="80" height="185" rx="10" transform="rotate(90 520 159)" fill="#393E46"/>
<rect x="335" y="19" width="80" height="310" rx="10" transform="rotate(90 335 19)" fill="#222831"/>
<path d="M748.094 110.099C725.46 87.465 695.367 75 663.359 75C631.351 75 601.257 87.465 578.624 110.099C539.992 148.731 533.305 207.393 558.557 252.964L504.496 307.026C491.835 319.687 491.835 340.288 504.496 352.949C510.629 359.083 518.783 362.46 527.457 362.46C536.131 362.46 544.285 359.083 550.418 352.949L604.239 299.128C622.063 309.269 642.296 314.667 663.359 314.667C695.368 314.667 725.461 302.203 748.094 279.569C794.817 232.845 794.817 156.822 748.094 110.099ZM726.882 258.356C709.914 275.323 687.355 284.667 663.36 284.667C639.365 284.667 616.805 275.323 599.838 258.356C564.813 223.33 564.813 166.337 599.838 131.312C616.806 114.344 639.365 105 663.36 105C687.355 105 709.915 114.344 726.882 131.312C761.907 166.338 761.907 223.33 726.882 258.356Z" fill="#FFD369"/>
</svg>
